<?xml version="1.0" encoding="utf-8"?>
<!-- Generator: Adobe Illustrator 25.2.1, SVG Export Plug-In . SVG Version: 6.00 Build 0)  -->
<svg version="1.1" id="Layer_1" xmlns="http://www.w3.org/2000/svg" xmlns:xlink="http://www.w3.org/1999/xlink" x="0px" y="0px"
	 viewBox="0 0 1093.87 1079.78" style="enable-background:new 0 0 1093.87 1079.78;" xml:space="preserve">
<style type="text/css">
	.st0{fill:none;}
	.st1{clip-path:url(#SVGID_2_);}
	.st2{fill:#D3B92A;}
</style>
<g id="Pattern_122_">
	<g>
		<rect x="6.91" y="-0.48" class="st0" width="1080.96" height="1080.96"/>
	</g>
	<g>
		<defs>
			<rect id="SVGID_1_" x="6.91" y="-0.48" width="1080.96" height="1080.96"/>
		</defs>
		<clipPath id="SVGID_2_">
			<use xlink:href="#SVGID_1_"  style="overflow:visible;"/>
		</clipPath>
		<g class="st1">
			<g>
				<g>
					<g>
						<path class="st2" d="M463.02,455.63H91.28V83.89h371.74V455.63z M103.29,443.62h347.71V95.9H103.29V443.62z"/>
					</g>
					<g>
						<rect x="271.14" y="89.9" class="st2" width="12.01" height="90.38"/>
					</g>
					<g>
						<rect x="271.14" y="359.25" class="st2" width="12.01" height="90.38"/>
					</g>
					<g>
						<rect x="97.29" y="263.76" class="st2" width="90.38" height="12.01"/>
					</g>
					<g>
						<rect x="366.64" y="263.76" class="st2" width="90.38" height="12.01"/>
					</g>
					<g>
						<path class="st2" d="M553.4,216.21H451.01V83.89H553.4V216.21z M463.02,204.2h78.37V95.9h-78.37V204.2z"/>
					</g>
					<g>
						<path class="st2" d="M553.4,336.51H451.01V204.2H553.4V336.51z M463.02,324.5h78.37V216.21h-78.37V324.5z"/>
					</g>
					<g>
						<path class="st2" d="M553.4,455.63H451.01V323.31H553.4V455.63z M463.02,443.62h78.37V335.32h-78.37V443.62z"/>
					</g>
					<g>
						<path class="st2" d="M103.29,216.21H0.91V83.89h102.39V216.21z M12.92,204.2h78.37V95.9H12.92V204.2z"/>
					</g>
					<g>
						<path class="st2" d="M103.29,336.51H0.91V204.2h102.39V336.51z M12.92,324.5h78.37V216.21H12.92V324.5z"/>
					</g>
					<g>
						<path class="st2" d="M103.29,455.63H0.91V323.31h102.39V455.63z M12.92,443.62h78.37V335.32H12.92V443.62z"/>
					</g>
					<g>
						<path class="st2" d="M463.02,546.01H330.7V443.62h132.31V546.01z M342.71,533.99h108.29v-78.37H342.71V533.99z"/>
					</g>
					<g>
						<path class="st2" d="M342.71,546.01H210.4V443.62h132.31V546.01z M222.41,533.99H330.7v-78.37H222.41V533.99z"/>
					</g>
					<g>
						<path class="st2" d="M223.6,546.01H91.28V443.62H223.6V546.01z M103.29,533.99h108.29v-78.37H103.29V533.99z"/>
					</g>
					<g>
						<path class="st2" d="M463.02,95.9H330.7V-6.48h132.31V95.9z M342.71,83.89h108.29V5.53H342.71V83.89z"/>
					</g>
					<g>
						<path class="st2" d="M342.71,95.9H210.4V-6.48h132.31V95.9z M222.41,83.89H330.7V5.53H222.41V83.89z"/>
					</g>
					<g>
						<path class="st2" d="M223.6,95.9H91.28V-6.48H223.6V95.9z M103.29,83.89h108.29V5.53H103.29V83.89z"/>
					</g>
					<g>
						<path class="st2" d="M372.64,365.25H181.66V174.27h190.98V365.25z M193.67,353.24h166.96V186.28H193.67V353.24z"/>
					</g>
				</g>
			</g>
			<g>
				<g>
					<g>
						<path class="st2" d="M1003.5,455.63H631.76V83.89h371.74V455.63z M643.77,443.62h347.71V95.9H643.77V443.62z"/>
					</g>
					<g>
						<rect x="811.62" y="89.9" class="st2" width="12.01" height="90.38"/>
					</g>
					<g>
						<rect x="811.62" y="359.25" class="st2" width="12.01" height="90.38"/>
					</g>
					<g>
						<rect x="637.77" y="263.76" class="st2" width="90.38" height="12.01"/>
					</g>
					<g>
						<rect x="907.11" y="263.76" class="st2" width="90.38" height="12.01"/>
					</g>
					<g>
						<path class="st2" d="M1093.87,216.21H991.49V83.89h102.39V216.21z M1003.5,204.2h78.37V95.9h-78.37V204.2z"/>
					</g>
					<g>
						<path class="st2" d="M1093.87,336.51H991.49V204.2h102.39V336.51z M1003.5,324.5h78.37V216.21h-78.37V324.5z"/>
					</g>
					<g>
						<path class="st2" d="M1093.87,455.63H991.49V323.31h102.39V455.63z M1003.5,443.62h78.37V335.32h-78.37V443.62z"/>
					</g>
					<g>
						<path class="st2" d="M643.77,216.21H541.38V83.89h102.39V216.21z M553.4,204.2h78.37V95.9H553.4V204.2z"/>
					</g>
					<g>
						<path class="st2" d="M643.77,336.51H541.38V204.2h102.39V336.51z M553.4,324.5h78.37V216.21H553.4V324.5z"/>
					</g>
					<g>
						<path class="st2" d="M643.77,455.63H541.38V323.31h102.39V455.63z M553.4,443.62h78.37V335.32H553.4V443.62z"/>
					</g>
					<g>
						<path class="st2" d="M1003.5,546.01H871.18V443.62h132.31V546.01z M883.19,533.99h108.29v-78.37H883.19V533.99z"/>
					</g>
					<g>
						<path class="st2" d="M883.19,546.01H750.88V443.62h132.31V546.01z M762.89,533.99h108.29v-78.37H762.89V533.99z"/>
					</g>
					<g>
						<path class="st2" d="M764.08,546.01H631.76V443.62h132.31V546.01z M643.77,533.99h108.29v-78.37H643.77V533.99z"/>
					</g>
					<g>
						<path class="st2" d="M1003.5,95.9H871.18V-6.48h132.31V95.9z M883.19,83.89h108.29V5.53H883.19V83.89z"/>
					</g>
					<g>
						<path class="st2" d="M883.19,95.9H750.88V-6.48h132.31V95.9z M762.89,83.89h108.29V5.53H762.89V83.89z"/>
					</g>
					<g>
						<path class="st2" d="M764.08,95.9H631.76V-6.48h132.31V95.9z M643.77,83.89h108.29V5.53H643.77V83.89z"/>
					</g>
					<g>
						<path class="st2" d="M913.12,365.25H722.14V174.27h190.98V365.25z M734.15,353.24h166.96V186.28H734.15V353.24z"/>
					</g>
				</g>
			</g>
			<g id="XMLID_338_">
				<g>
					<g>
						<path class="st2" d="M463.02,996.11H91.28V624.37h371.74V996.11z M103.29,984.1h347.71V636.38H103.29V984.1z"/>
					</g>
					<g>
						<rect x="271.14" y="630.38" class="st2" width="12.01" height="90.38"/>
					</g>
					<g>
						<rect x="271.14" y="899.72" class="st2" width="12.01" height="90.38"/>
					</g>
					<g>
						<rect x="97.29" y="804.23" class="st2" width="90.38" height="12.01"/>
					</g>
					<g>
						<rect x="366.64" y="804.23" class="st2" width="90.38" height="12.01"/>
					</g>
					<g>
						<path class="st2" d="M553.4,756.69H451.01V624.37H553.4V756.69z M463.02,744.68h78.37V636.38h-78.37V744.68z"/>
					</g>
					<g>
						<path class="st2" d="M553.4,876.99H451.01V744.68H553.4V876.99z M463.02,864.98h78.37V756.69h-78.37V864.98z"/>
					</g>
					<g>
						<path class="st2" d="M553.4,996.11H451.01V863.79H553.4V996.11z M463.02,984.1h78.37V875.8h-78.37V984.1z"/>
					</g>
					<g>
						<path class="st2" d="M103.29,756.69H0.91V624.37h102.39V756.69z M12.92,744.68h78.37V636.38H12.92V744.68z"/>
					</g>
					<g>
						<path class="st2" d="M103.29,876.99H0.91V744.68h102.39V876.99z M12.92,864.98h78.37V756.69H12.92V864.98z"/>
					</g>
					<g>
						<path class="st2" d="M103.29,996.11H0.91V863.79h102.39V996.11z M12.92,984.1h78.37V875.8H12.92V984.1z"/>
					</g>
					<g>
						<path class="st2" d="M463.02,1086.48H330.7V984.1h132.31V1086.48z M342.71,1074.47h108.29v-78.37H342.71V1074.47z"/>
					</g>
					<g>
						<path class="st2" d="M342.71,1086.48H210.4V984.1h132.31V1086.48z M222.41,1074.47H330.7v-78.37H222.41V1074.47z"/>
					</g>
					<g>
						<path class="st2" d="M223.6,1086.48H91.28V984.1H223.6V1086.48z M103.29,1074.47h108.29v-78.37H103.29V1074.47z"/>
					</g>
					<g>
						<path class="st2" d="M463.02,636.38H330.7V533.99h132.31V636.38z M342.71,624.37h108.29v-78.37H342.71V624.37z"/>
					</g>
					<g>
						<path class="st2" d="M342.71,636.38H210.4V533.99h132.31V636.38z M222.41,624.37H330.7v-78.37H222.41V624.37z"/>
					</g>
					<g>
						<path class="st2" d="M223.6,636.38H91.28V533.99H223.6V636.38z M103.29,624.37h108.29v-78.37H103.29V624.37z"/>
					</g>
					<g>
						<path class="st2" d="M372.64,905.73H181.66V714.75h190.98V905.73z M193.67,893.72h166.96V726.76H193.67V893.72z"/>
					</g>
				</g>
			</g>
			<g>
				<g>
					<g>
						<path class="st2" d="M1003.5,996.11H631.76V624.37h371.74V996.11z M643.77,984.1h347.71V636.38H643.77V984.1z"/>
					</g>
					<g>
						<rect x="811.62" y="630.38" class="st2" width="12.01" height="90.38"/>
					</g>
					<g>
						<rect x="811.62" y="899.72" class="st2" width="12.01" height="90.38"/>
					</g>
					<g>
						<rect x="637.77" y="804.23" class="st2" width="90.38" height="12.01"/>
					</g>
					<g>
						<rect x="907.11" y="804.23" class="st2" width="90.38" height="12.01"/>
					</g>
					<g>
						<path class="st2" d="M1093.87,756.69H991.49V624.37h102.39V756.69z M1003.5,744.68h78.37V636.38h-78.37V744.68z"/>
					</g>
					<g>
						<path class="st2" d="M1093.87,876.99H991.49V744.68h102.39V876.99z M1003.5,864.98h78.37V756.69h-78.37V864.98z"/>
					</g>
					<g>
						<path class="st2" d="M1093.87,996.11H991.49V863.79h102.39V996.11z M1003.5,984.1h78.37V875.8h-78.37V984.1z"/>
					</g>
					<g>
						<path class="st2" d="M643.77,756.69H541.38V624.37h102.39V756.69z M553.4,744.68h78.37V636.38H553.4V744.68z"/>
					</g>
					<g>
						<path class="st2" d="M643.77,876.99H541.38V744.68h102.39V876.99z M553.4,864.98h78.37V756.69H553.4V864.98z"/>
					</g>
					<g>
						<path class="st2" d="M643.77,996.11H541.38V863.79h102.39V996.11z M553.4,984.1h78.37V875.8H553.4V984.1z"/>
					</g>
					<g>
						<path class="st2" d="M1003.5,1086.48H871.18V984.1h132.31V1086.48z M883.19,1074.47h108.29v-78.37H883.19V1074.47z"/>
					</g>
					<g>
						<path class="st2" d="M883.19,1086.48H750.88V984.1h132.31V1086.48z M762.89,1074.47h108.29v-78.37H762.89V1074.47z"/>
					</g>
					<g>
						<path class="st2" d="M764.08,1086.48H631.76V984.1h132.31V1086.48z M643.77,1074.47h108.29v-78.37H643.77V1074.47z"/>
					</g>
					<g>
						<path class="st2" d="M1003.5,636.38H871.18V533.99h132.31V636.38z M883.19,624.37h108.29v-78.37H883.19V624.37z"/>
					</g>
					<g>
						<path class="st2" d="M883.19,636.38H750.88V533.99h132.31V636.38z M762.89,624.37h108.29v-78.37H762.89V624.37z"/>
					</g>
					<g>
						<path class="st2" d="M764.08,636.38H631.76V533.99h132.31V636.38z M643.77,624.37h108.29v-78.37H643.77V624.37z"/>
					</g>
					<g>
						<path class="st2" d="M913.12,905.73H722.14V714.75h190.98V905.73z M734.15,893.72h166.96V726.76H734.15V893.72z"/>
					</g>
				</g>
			</g>
		</g>
	</g>
</g>
<g>
	<path class="st2" d="M1093.87,1086.48H0.91V-6.48h1092.97V1086.48z M12.92,1074.47h1068.95V5.53H12.92V1074.47z"/>
</g>
</svg>
