<?xml version="1.0" encoding="utf-8"?>
<!-- Generator: Adobe Illustrator 25.2.0, SVG Export Plug-In . SVG Version: 6.00 Build 0)  -->
<svg version="1.1" id="Layer_1" xmlns="http://www.w3.org/2000/svg" xmlns:xlink="http://www.w3.org/1999/xlink" x="0px" y="0px"
	 viewBox="0 0 219.6 92.6" style="enable-background:new 0 0 219.6 92.6;" xml:space="preserve">
<style type="text/css">
	.st0{clip-path:url(#SVGID_2_);fill:#B3236E;}
	.st1{fill:#B3236E;}
	.st2{fill:#222222;}
</style>
<g>
	<g>
		<defs>
			<rect id="SVGID_1_" x="6.2" y="4.4" width="207" height="84.4"/>
		</defs>
		<clipPath id="SVGID_2_">
			<use xlink:href="#SVGID_1_"  style="overflow:visible;"/>
		</clipPath>
		<path class="st0" d="M26.7,75.5c2.6,0,5.1,0,7.7,0c1.1,0,1.2-0.1,1-1.2c-0.9-3.8-1.7-7.6-2.6-11.4c-0.5-2.4-1-4.7-1.5-7.1
			c-0.1-0.5-0.3-1-1-1c-2.4,0-4.7,0-7.1,0c-0.5,0-0.8,0.3-0.9,0.8c-0.6,2.7-1.2,5.3-1.9,8c-0.8,3.6-1.6,7.1-2.4,10.7
			c-0.2,0.9,0,1.2,0.9,1.2C21.5,75.5,24.1,75.5,26.7,75.5L26.7,75.5z M6.2,33.6c0-6.7,0-13.4,0-20.1c0-1.1,0-1.1,1.2-1.1
			c10.2,0,20.5,0,30.7,0c1.2,0,1.2,0,1.2,1.2c0,1.7,0,3.4,0,5c0,0.6-0.2,0.9-0.9,0.9c-1.9,0-3.8,0-5.7,0c-0.8,0-1.1,0.3-1.1,1.1
			c0,1.9,0,3.8,0,5.7c0,0.8-0.3,1-1,1c-1.9,0-3.7,0-5.6,0c-0.8,0-1.1,0.2-1.1,1c0,2.1,0,4.1,0,6.2c0,0.7,0.2,0.9,0.9,0.9
			c2.1,0,4.3,0,6.4,0c0.7,0,0.9-0.2,0.9-0.9c0-1.9,0-3.8,0-5.6c0-0.8,0.2-1.1,1-1.1c1.8,0.1,3.6,0,5.4,0c0.6,0,0.9,0.2,0.9,0.9
			c0,1.9,0,3.9,0,5.8c0,0.7,0.2,0.9,0.9,0.9c2,0,3.9,0,5.9,0c0.7,0,0.9,0.2,0.9,0.9c0,5.9,0,11.7,0,17.6c0,0.8-0.3,1-1,1
			c-3.5,0-7,0-10.5,0c-1.1,0-1.2,0-1,1.2c0.4,2.2,0.9,4.5,1.4,6.7c0.7,3,1.4,6,2,9c0.6,2.8,1.3,5.6,1.9,8.3c0.6,2.5,1.2,5,1.8,7.6
			c0.3,1.1,0.2,1.2-0.9,1.2c-2.2,0-2.2,0-2.6-2.1c-0.5-2.3-1-4.6-1.5-6.9c-0.2-0.7-0.5-1.1-1.3-1.1c-5.8,0-11.5,0-17.3,0
			c-0.7,0-1.1,0.2-1.3,1c-0.6,2.8-1.2,5.6-1.9,8.4c-0.1,0.2-0.4,0.5-0.6,0.5c-0.4,0.1-0.8,0-1.2,0c-1.6,0-1.6,0-1.2-1.6
			c0.8-3.4,1.6-6.9,2.4-10.3c0.9-3.8,1.8-7.6,2.7-11.5c0.5-2.1,0.9-4.2,1.3-6.4c0.2-1,0.5-2,0.8-3c0.2-1,0.1-1.2-1-1.2
			c-3.6,0-7.1,0-10.7,0c-0.8,0-1.1-0.2-1.1-1.1C6.2,47,6.2,40.3,6.2,33.6L6.2,33.6z"/>
		<path class="st0" d="M51.2,11.8c-1,0-2,0-3,0c-0.5,0-0.7-0.2-0.7-0.7c0-2,0-4.1,0-6.1c0-0.5,0.2-0.7,0.7-0.7c2,0,4,0,6.1,0
			c0.5,0,0.7,0.3,0.7,0.8c0,2,0,3.9,0,5.9c0,0.6-0.2,0.8-0.8,0.8C53.1,11.8,52.2,11.8,51.2,11.8L51.2,11.8z"/>
	</g>
	<path class="st1" d="M47.1,23.6c0,1,0,1.9,0,2.9c0,0.6-0.2,0.8-0.8,0.8c-1.9,0-3.8,0-5.7,0c-0.6,0-0.8-0.2-0.8-0.8
		c0-1.9,0-3.8,0-5.7c0-0.5,0.2-0.8,0.8-0.8c1.9,0,3.8,0,5.7,0c0.6,0,0.8,0.2,0.8,0.8C47,21.7,47.1,22.7,47.1,23.6
		C47.1,23.6,47.1,23.6,47.1,23.6L47.1,23.6z"/>
	<path class="st2" d="M63.9,42.6l2-3.5c0.3-0.5,1.1-0.5,1.4-0.3c0.2,0.1,3.2,2.3,6,2.3c1.7,0,2.9-1.1,2.9-2.5c0-1.8-1.5-3.1-4.3-4.2
		c-3.6-1.4-8.1-4.2-8.1-9.3c0-4.2,3.2-8.4,9.7-8.4c4.4,0,7.7,2.2,9,3.2c0.5,0.3,0.4,1.1,0.3,1.3l-2.1,3.2c-0.3,0.5-1.1,0.8-1.4,0.5
		c-0.4-0.2-3.4-2.5-6-2.5c-1.5,0-2.6,1-2.6,2.1c0,1.6,1.3,2.7,4.6,4.1c3.3,1.3,8.5,3.9,8.5,9.6c0,4.3-3.7,8.7-9.9,8.7
		c-5.5,0-8.5-2.3-9.5-3.2C63.7,43.3,63.6,43.2,63.9,42.6L63.9,42.6z"/>
	<path class="st2" d="M92.4,23.3h-6c-0.5,0-0.8-0.4-0.8-0.8V18c0-0.4,0.3-0.8,0.8-0.8h18.7c0.5,0,0.8,0.4,0.8,0.8v4.6
		c0,0.4-0.3,0.8-0.8,0.8h-6v22.4c0,0.4-0.4,0.8-0.8,0.8h-5c-0.4,0-0.8-0.4-0.8-0.8V23.3L92.4,23.3z"/>
	<path class="st2" d="M109.6,18c0-0.4,0.4-0.8,0.8-0.8h5.2c0.5,0,0.8,0.4,0.8,0.8v17c0,2.9,2.2,5.3,5.2,5.3c3,0,5.3-2.4,5.3-5.3V18
		c0-0.4,0.3-0.8,0.8-0.8h5.2c0.4,0,0.8,0.4,0.8,0.8v17.3c0,6.4-5.4,11.7-12,11.7c-6.6,0-11.9-5.3-11.9-11.7V18L109.6,18z"/>
	<path class="st2" d="M150.9,40.3c4.7,0,8.2-3.7,8.2-8.5c0-4.7-3.4-8.5-8.2-8.5h-4v17H150.9L150.9,40.3z M140.3,18
		c0-0.4,0.3-0.8,0.8-0.8h10.2c8.1,0,14.7,6.6,14.7,14.7c0,8.1-6.6,14.7-14.7,14.7h-10.2c-0.4,0-0.8-0.4-0.8-0.8V18L140.3,18z"/>
	<path class="st2" d="M171.2,18c0-0.4,0.4-0.8,0.8-0.8h5c0.4,0,0.8,0.4,0.8,0.8v27.8c0,0.4-0.4,0.8-0.8,0.8h-5
		c-0.4,0-0.8-0.4-0.8-0.8V18L171.2,18z"/>
	<path class="st2" d="M198,40.3c4.6,0,8.4-3.8,8.4-8.4c0-4.6-3.8-8.4-8.4-8.4c-4.6,0-8.4,3.8-8.4,8.4
		C189.6,36.5,193.4,40.3,198,40.3L198,40.3z M198,16.7c8.4,0,15.1,6.8,15.1,15.2c0,8.4-6.7,15.1-15.1,15.1
		c-8.4,0-15.1-6.7-15.1-15.1C182.9,23.5,189.6,16.7,198,16.7L198,16.7z"/>
	<path class="st1" d="M65.3,56.4c0-0.5,0.4-0.9,0.9-0.9h4.5c0.5,0,0.9,0.4,0.9,0.9v10.2l8.6-10.7c0.2-0.2,0.5-0.4,0.7-0.4h4.9
		c0.7,0,1.1,0.9,0.7,1.4l-9.1,11.3l9.9,12.9c0.4,0.6,0,1.4-0.7,1.4h-5.3c-0.3,0-0.6-0.2-0.7-0.3l-8.9-12.2v11.5
		c0,0.5-0.4,0.9-0.9,0.9h-4.5c-0.5,0-0.9-0.4-0.9-0.9V56.4L65.3,56.4z"/>
	<path class="st1" d="M103.8,73.3l-2.9-6.4h0l-2.9,6.4H103.8L103.8,73.3z M87.9,81.6L100,55.5c0.1-0.2,0.4-0.4,0.7-0.4h0.4
		c0.3,0,0.5,0.2,0.7,0.4l12.1,26.1c0.2,0.5-0.1,1-0.7,1h-4.3c-0.7,0-1-0.2-1.4-1l-1.4-3.1H95.6l-1.4,3.1c-0.2,0.5-0.6,0.9-1.4,0.9
		h-4.3C88,82.6,87.7,82.1,87.9,81.6L87.9,81.6z"/>
	<path class="st1" d="M117,55.8c0-0.4,0.3-0.7,0.7-0.7h1l15.5,14.9h0V56.2c0-0.4,0.3-0.7,0.7-0.7h4.6c0.4,0,0.7,0.3,0.7,0.7v26.1
		c0,0.4-0.3,0.7-0.7,0.7h-0.6c-0.1,0-0.4-0.1-0.5-0.2l-15.3-15.4h0v14.4c0,0.4-0.3,0.7-0.7,0.7h-4.6c-0.4,0-0.7-0.3-0.7-0.7
		L117,55.8L117,55.8z"/>
	<path class="st1" d="M143.5,56.5c-0.2-0.5,0.1-1,0.7-1h5.2c0.3,0,0.6,0.2,0.7,0.4l6.4,14.1h0.2l6.4-14.1c0.1-0.2,0.3-0.4,0.7-0.4
		h5.2c0.6,0,0.9,0.5,0.7,1l-12.2,26.1c-0.1,0.2-0.3,0.4-0.7,0.4h-0.4c-0.3,0-0.5-0.2-0.7-0.4L143.5,56.5L143.5,56.5z"/>
	<path class="st1" d="M182.9,73.3l-2.9-6.4h0l-2.9,6.4H182.9L182.9,73.3z M166.9,81.6l12.1-26.1c0.1-0.2,0.4-0.4,0.7-0.4h0.4
		c0.3,0,0.5,0.2,0.7,0.4l12.1,26.1c0.2,0.5-0.1,1-0.7,1h-4.3c-0.7,0-1-0.2-1.4-1l-1.4-3.1h-10.5l-1.4,3.1c-0.2,0.5-0.6,0.9-1.4,0.9
		h-4.3C167,82.6,166.7,82.1,166.9,81.6L166.9,81.6z"/>
	<path class="st1" d="M194.5,78.9l1.8-3.2c0.3-0.5,1-0.4,1.3-0.2c0.2,0.1,2.9,2.1,5.5,2.1c1.5,0,2.7-1,2.7-2.3c0-1.6-1.4-2.9-4-3.9
		c-3.3-1.3-7.5-3.9-7.5-8.6c0-3.8,3-7.7,8.9-7.7c4,0,7.1,2.1,8.3,2.9c0.5,0.3,0.4,1,0.2,1.2l-2,3c-0.3,0.4-1,0.8-1.3,0.5
		c-0.3-0.2-3.2-2.3-5.5-2.3c-1.4,0-2.4,0.9-2.4,2c0,1.4,1.2,2.5,4.2,3.8c3,1.2,7.8,3.6,7.8,8.8c0,4-3.4,8-9.1,8c-5,0-7.8-2.1-8.7-3
		C194.3,79.6,194.2,79.4,194.5,78.9L194.5,78.9z"/>
</g>
</svg>
