<?xml version="1.0" encoding="utf-8"?>
<!-- Generator: Adobe Illustrator 25.2.1, SVG Export Plug-In . SVG Version: 6.00 Build 0)  -->
<svg version="1.1" id="Layer_1" xmlns="http://www.w3.org/2000/svg" xmlns:xlink="http://www.w3.org/1999/xlink" x="0px" y="0px"
	 viewBox="0 0 1093.9 554" style="enable-background:new 0 0 1093.9 554;" xml:space="preserve">
<style type="text/css">
	.st0{fill:none;}
	.st1{fill:#D3B92A;}
</style>
<g>
	<rect x="6.9" y="7.5" class="st0" width="1081" height="1081"/>
</g>
<rect x="6.9" y="7.5" class="st0" width="1081" height="1081"/>
<g>
	<g>
		<g>
			<path class="st1" d="M463,463.6H91.3V91.9H463V463.6z M103.3,451.6H451V103.9H103.3V451.6z"/>
		</g>
		<g>
			<rect x="271.1" y="97.9" class="st1" width="12" height="90.4"/>
		</g>
		<g>
			<rect x="271.1" y="367.2" class="st1" width="12" height="90.4"/>
		</g>
		<g>
			<rect x="97.3" y="271.8" class="st1" width="90.4" height="12"/>
		</g>
		<g>
			<rect x="366.6" y="271.8" class="st1" width="90.4" height="12"/>
		</g>
		<g>
			<path class="st1" d="M553.4,224.2H451V91.9h102.4V224.2z M463,212.2h78.4V103.9H463L463,212.2L463,212.2z"/>
		</g>
		<g>
			<path class="st1" d="M553.4,344.5H451V212.2h102.4V344.5z M463,332.5h78.4V224.2H463L463,332.5L463,332.5z"/>
		</g>
		<g>
			<path class="st1" d="M553.4,463.6H451V331.3h102.4V463.6z M463,451.6h78.4V343.3H463L463,451.6L463,451.6z"/>
		</g>
		<g>
			<path class="st1" d="M103.3,224.2H0.9V91.9h102.4L103.3,224.2L103.3,224.2z M12.9,212.2h78.4V103.9H12.9V212.2z"/>
		</g>
		<g>
			<path class="st1" d="M103.3,344.5H0.9V212.2h102.4L103.3,344.5L103.3,344.5z M12.9,332.5h78.4V224.2H12.9V332.5z"/>
		</g>
		<g>
			<path class="st1" d="M103.3,463.6H0.9V331.3h102.4L103.3,463.6L103.3,463.6z M12.9,451.6h78.4V343.3H12.9V451.6z"/>
		</g>
		<g>
			<path class="st1" d="M463,554H330.7V451.6H463L463,554L463,554z M342.7,542H451v-78.4H342.7V542z"/>
		</g>
		<g>
			<path class="st1" d="M342.7,554H210.4V451.6h132.3V554z M222.4,542h108.3v-78.4H222.4V542z"/>
		</g>
		<g>
			<path class="st1" d="M223.6,554H91.3V451.6h132.3V554z M103.3,542h108.3v-78.4H103.3V542z"/>
		</g>
		<g>
			<path class="st1" d="M463,103.9H330.7V1.5H463L463,103.9L463,103.9z M342.7,91.9H451V13.5H342.7V91.9z"/>
		</g>
		<g>
			<path class="st1" d="M342.7,103.9H210.4V1.5h132.3V103.9z M222.4,91.9h108.3V13.5H222.4V91.9z"/>
		</g>
		<g>
			<path class="st1" d="M223.6,103.9H91.3V1.5h132.3V103.9z M103.3,91.9h108.3V13.5H103.3V91.9z"/>
		</g>
		<g>
			<path class="st1" d="M372.6,373.2h-191v-191h191V373.2z M193.7,361.2h167v-167h-167V361.2z"/>
		</g>
	</g>
</g>
<g>
	<g>
		<g>
			<path class="st1" d="M1003.5,463.6H631.8V91.9h371.7V463.6z M643.8,451.6h347.7V103.9H643.8V451.6z"/>
		</g>
		<g>
			<rect x="811.6" y="97.9" class="st1" width="12" height="90.4"/>
		</g>
		<g>
			<rect x="811.6" y="367.2" class="st1" width="12" height="90.4"/>
		</g>
		<g>
			<rect x="637.8" y="271.8" class="st1" width="90.4" height="12"/>
		</g>
		<g>
			<rect x="907.1" y="271.8" class="st1" width="90.4" height="12"/>
		</g>
		<g>
			<path class="st1" d="M1093.9,224.2H991.5V91.9h102.4L1093.9,224.2L1093.9,224.2z M1003.5,212.2h78.4V103.9h-78.4V212.2z"/>
		</g>
		<g>
			<path class="st1" d="M1093.9,344.5H991.5V212.2h102.4L1093.9,344.5L1093.9,344.5z M1003.5,332.5h78.4V224.2h-78.4V332.5z"/>
		</g>
		<g>
			<path class="st1" d="M1093.9,463.6H991.5V331.3h102.4L1093.9,463.6L1093.9,463.6z M1003.5,451.6h78.4V343.3h-78.4V451.6z"/>
		</g>
		<g>
			<path class="st1" d="M643.8,224.2H541.4V91.9h102.4V224.2z M553.4,212.2h78.4V103.9h-78.4V212.2z"/>
		</g>
		<g>
			<path class="st1" d="M643.8,344.5H541.4V212.2h102.4V344.5z M553.4,332.5h78.4V224.2h-78.4V332.5z"/>
		</g>
		<g>
			<path class="st1" d="M643.8,463.6H541.4V331.3h102.4V463.6z M553.4,451.6h78.4V343.3h-78.4V451.6z"/>
		</g>
		<g>
			<path class="st1" d="M1003.5,554H871.2V451.6h132.3L1003.5,554L1003.5,554z M883.2,542h108.3v-78.4H883.2V542z"/>
		</g>
		<g>
			<path class="st1" d="M883.2,554H750.9V451.6h132.3V554z M762.9,542h108.3v-78.4H762.9V542z"/>
		</g>
		<g>
			<path class="st1" d="M764.1,554H631.8V451.6h132.3L764.1,554L764.1,554z M643.8,542h108.3v-78.4H643.8V542z"/>
		</g>
		<g>
			<path class="st1" d="M1003.5,103.9H871.2V1.5h132.3L1003.5,103.9L1003.5,103.9z M883.2,91.9h108.3V13.5H883.2V91.9z"/>
		</g>
		<g>
			<path class="st1" d="M883.2,103.9H750.9V1.5h132.3V103.9z M762.9,91.9h108.3V13.5H762.9V91.9z"/>
		</g>
		<g>
			<path class="st1" d="M764.1,103.9H631.8V1.5h132.3L764.1,103.9L764.1,103.9z M643.8,91.9h108.3V13.5H643.8V91.9z"/>
		</g>
		<g>
			<path class="st1" d="M913.1,373.2h-191v-191h191V373.2z M734.2,361.2h167v-167h-167V361.2z"/>
		</g>
	</g>
</g>
<path class="st1" d="M1093.9,554H0.9V1.5h1093L1093.9,554L1093.9,554z M12.9,547.9h1068.9V7.6H12.9V547.9z"/>
<rect y="451.6" class="st1" width="1093.9" height="12"/>
<rect y="541.9" class="st1" width="1093.9" height="12"/>
<rect y="1.6" class="st1" width="1093.9" height="12"/>
</svg>
